<?xml version="1.0" encoding="UTF-8"?>
<svg id="_图层_1" xmlns="http://www.w3.org/2000/svg" version="1.1" viewBox="0 0 203.9 209.5">
  <!-- Generator: Adobe Illustrator 29.0.1, SVG Export Plug-In . SVG Version: 2.1.0 Build 192)  -->
  <defs>
    <style>
      .st0 {
        fill: #3f3f3f;
      }

      .st1 {
        fill: #8f8f8f;
      }

      .st2 {
        fill: #d2d2d2;
      }

      .st3 {
        fill: #ebebeb;
      }

      .st4 {
        fill: #3b3b3b;
      }

      .st5 {
        fill: #373737;
      }

      .st6 {
        fill: #575757;
      }

      .st7 {
        fill: #4e4e4e;
      }

      .st8 {
        fill: #d7d7d7;
      }

      .st9 {
        fill: #fff;
        stroke: #000;
        stroke-miterlimit: 10;
      }

      .st10 {
        fill: #a3a3a3;
      }

      .st11 {
        fill: #2a2a2a;
      }

      .st12 {
        fill: #626262;
      }

      .st13 {
        fill: #6a6a6a;
      }

      .st14 {
        fill: #c8c8c8;
      }

      .st15 {
        fill: #dadada;
      }
    </style>
  </defs>
  <rect class="st9" x="-13" y="-11" width="228" height="228"/>
  <path class="st11" d="M115,93.3l.2.2c.4.5.9.9,1.3,1.4h0l.6.5.3.3v.6c-.1,0,.5,0,.5,0h0c0,1,.9,1.4,1.5,2h0l1,.9h.2c0,.1.1.3.1.3v.2c.3.1.4.3.6.4h0v.2c.1,0,1,.8,1,.8l.2.5c0,.6-.1,1.2-.2,1.8l-.5.6c-.7.8-1.4,1.6-2.2,2.4-1.8,1.8-3.6,3.6-5.3,5.4-1.5,1.5-2.9,3-4.4,4.5-.6.6-1.2,1.2-1.8,1.8l-1.3,1.4-.4.4-1.1.7-.8.2-1.6-.3-1.4-1.3h-.2c0-.1-.2-.3-.2-.3,0-.2,0-.3-.2-.5-.9-.9-1.7-1.8-2.7-2.6-.2-.2-.5-.2-.8-.2l-.8-.8c-.1-.3-.1-.7-.3-.9-.6-.6-1.3-1.2-2-1.8h0c-.4-.4-.9-.7-1.3-1l-.3-.3c0-.2-.2-.4-.3-.6-.8-.8-1.7-1.7-2.5-2.4-.3-.2-.6-.5-.9-.7-.3-.3-.7-.5-.8-.8-.2-.6-.6-.8-1-1l-.7-.5h0c0-.1-.3-.6-.3-.6-.6-.5-.8-1.2-.7-2,0-.3-.2-.6-.2-.9,0-.6.6-.7.9-1,.4-.4.9-.7,1.1-1.3,0-.3.6-.6.9-.9.5-.5,1-1,1.5-1.5.8-.2,1.3-.8,1.8-1.4.4-.5.8-.9,1.2-1.3s.8-.7,1.2-1.1c.1,0,.2-.2.4-.2.9-.1,1.3-.9,1.9-1.5l1.6-1.6,1.1-1s0,0,0,0l.2-.2c0,0,0,0,0,0l.4-.4.4-.4c0,0,.2-.2.3-.3l.2-.3-.5-.2.4-.3.4-.2c0,.1,0,.3.1.5l2.6-2.7h.8c.3,0,.7,0,1.1,0h-.2c0,.1,0,.2,0,.2v-.2c.1,0,1.3.8,1.3.8l1.5,1.8c0,.6.5,1,.9,1.4.5.5,1,1,1.5,1.5.2.2.3.3.5.4h.1c-.2-.3-.3-.5-.5-.6-.3-.3-.7-.7-1-1,0-.1,0-.3,0-.5l3.5,3.5c.2.3.4.7.7,1,.4.4.9.8,1.3,1.1h-.2Z"/>
  <path class="st2" d="M93,110.9l.3.3c.3.5.5,1.1,1.3,1h0c0,.2,0,.5,0,.6.7.7,1.5,1.4,2.2,2.1l.8.8c0,.1.1.2.2.3,1.3,1.4,2.7,2.7,4,4,.3.3.7.6,1.1.8.8.3,1.6.6,2.4.2.5-.2,1-.4,1.1-1.1.1-.1.3-.3.4-.4.9,0,1.1-.9,1.8-1.4h-.6c.6-.6,1.2-1.2,1.8-1.8,1.5-1.5,2.9-3,4.4-4.5,1.8-1.8,3.6-3.6,5.3-5.4.7-.8,1.5-1.6,2.2-2.4.1.6.6,1.1,1.2,1.2-.1.3-.7.5-.3.9l1-.6c0,0,.2,0,.2.1,0,.8.1,1.6.1,2.4,0,.2-.1.4-.3.6-1.2,1.3-2.4,2.6-3.6,3.9-.8.9-1.6,1.7-2.4,2.6-1.1,1.1-2.3,2.2-3.4,3.4-1.5,1.5-3,3.1-4.5,4.6,0,0,0,0,0,0-.3,1-1.3,1.5-2,2.2-.3.2-.5.6-.8.8-.8.4-2,.1-2.6-.6-.2-.2-.4-.3-.6-.5-.4-.5-.8-1-1.2-1.5-1.1-1.1-2.2-2-3.3-3.1-.9-.8-1.7-1.7-2.5-2.4-.2-.2-.4-.3-.6-.4l-.3-.3c-.3-.3-.6-.6-.9-.9-.2-.2-.3-.3-.5-.5-.2-.3-.2-.9-.8-.5l-1.4-1.6h.2c0,0-.2-.1-.2-.1h0c-.5-.5-1.1-1-1.6-1.4-.3-.3-.6-.7-.9-1h0s0,0,0,0c-.1,0-.3,0-.4-.1-.7-.8-1.4-1.6-2-2.4-.1-.2-.2-.5-.2-.8,0-.3,0-.7,0-1v-.3c.1,0,0,0,0,0v.3c0-.2,0-.4,0-.6,0-.3.2-.6.3-.9.5.2.9.4,1,1,0,.3.5.5.8.8,0,.1,0,.2.2.3,1,1.1,2.1,2.1,3.1,3.1.2.1.3.2.5.2h0ZM92,111.8v-.2h-.1s.1.2.1.2c0,1,1,1.4,1.5,2.1.2.3.4.7.6,1,1.4,1.4,2.8,2.7,4.2,4s2.7,2.7,4.2,4c1.3,1.2,3,1,4.1-.4.5-.6.9-1.1,1.5-1.5.7-.7,1.6-1.4,2.3-2.2,1.3-1.4,2.6-2.7,4-4.1,0-.1.1-.2.2-.3-.2,0-.4,0-.5.2-1,.9-2.1,1.7-3.1,2.6-1.2,1.1-2.4,2.3-3.6,3.5-.7.7-1.2,1.6-2.1,2.1-.5.3-1.4.4-1.8,0-1.3-1.2-2.6-2.5-3.9-3.7-1-.9-1.9-1.9-2.9-2.7-.6-.5-1.1-1.1-1.8-1.4-.3-.2-.4-.6-.6-1-.7-.7-1.5-1.4-2.3-2.1h0ZM106.9,126h0c0-.1-.7,0-.7,0v.2c0,0,.8-.3.8-.3h0Z"/>
  <path class="st15" d="M94.1,117.5c.4.3.8.6,1.2,1,.5.5.8,1.3,1.4,1.7.4.3.8.6,1.2.9,1.4,1.4,2.9,2.8,4.4,4.1.9.9,1.9,1.7,2.8,2.6.4.4,1.4.4,1.8,0,1.2-1,2.2-2.3,3.4-3.4,1-.9,1.9-1.8,2.8-2.6.7-.7,1.5-1.3,2.2-1.9.2-.2.4-.3.6-.4h.1c-.2.3-.3.5-.5.6-1.2,1.3-2.4,2.6-3.7,3.9-.6.6-1.2,1.3-1.8,1.9s-1.4,1.3-2,2c-1.1,1.3-2.8,1.6-4.2.2l-3.7-3.7c-1.4-1.4-2.8-2.7-4.2-4.1-.5-.5-.9-1.2-1.4-1.7-.3-.3-.6-.6-1-.9h.5,0Z"/>
  <path class="st4" d="M123.8,105.6l-1,.6c-.3-.4.2-.6.3-.9l.3-.2.7-.6c.1,0,.3,0,.3,0,.1-.3.3-.6.4-.9.5-.5.5-1.8,0-2.3-1.5-1.4-3-2.8-4.5-4.2-.7-.6-1.3-1.4-1.9-2.1-.3-.3-.8-.6-1.1-1-.9-1-1.7-2.1-2.5-3.1,0,0,0-.2,0-.3,0,0,.2,0,.2,0,1.3,1.2,2.6,2.4,3.8,3.7s2.3,2.3,3.4,3.5,2,1.7,2.9,2.7c1,1.2,1.4,2.2.3,3.7,0,0,0,.2-.1.2l-.5.4-1,.9h0Z"/>
  <path class="st4" d="M93.2,91.6c-.3.6-.7,1.1-1.4,1.1,0,.2-.1.5-.2.7-.5.5-1,1.1-1.5,1.6-1,1.1-2,2.2-3,3.2-.9.9-1.9,1.8-2.7,2.7-.6.6-.9,1.5-.8,2.4v.3c-.5-.6-.7-2-.2-2.6.4-.5.8-1,1.2-1.5.6-.6,1.3-1.3,1.9-1.9,1.1-1.1,2.1-2.1,3.2-3.2.6-.6,1.1-1.3,1.8-1.9.5-.4,1-.8,1.5-1.2l.3.3h0Z"/>
  <path class="st0" d="M108.1,84c-.6-.3-1.1-.6-1.4-1.3,0-.2-.5-.2-.6-.4-.6-.6-1.4-1.1-2.2-.7-.5.2-.9.7-1.3,1.1-1.3,1.3-2.5,2.8-4.2,3.7-.2.1-.4.1-.6.1,1-1.1,2.1-2.3,3.1-3.4.5-.6,1-1.1,1.6-1.7,1-1,2.6-1,3.6,0h0c.8.8,1.5,1.8,2.2,2.7,0,0-.1.1-.2.2,0,0,0-.1.1-.2h-.2,0Z"/>
  <path class="st15" d="M124.8,104.7l.5-.4c.8.5,1.4,1.1,1.9,1.9.3.6.5,1.3.3,2-.2,1-1,1.5-1.7,2-.4.3-.8.6-1.2,1l-.3-.3c.4-.6,1-1.1,1.6-1.5.4-.3.6-1,.8-1.6.3-1-.3-1.6-1-2.2-.3-.3-.6-.7-.9-1h0Z"/>
  <path class="st3" d="M96.2,117.6c.2.1.4.2.6.4.8.8,1.6,1.7,2.5,2.4,1.1,1,2.2,2,3.3,3.1.4.5.8,1,1.2,1.5,0,0-.2.2-.2.2-.1,0-.2-.2-.3-.3-2.2-2.2-4.4-4.4-6.6-6.6-.2-.2-.3-.5-.4-.7h0Z"/>
  <path class="st6" d="M106.5,84.7l-1.2-.8h0c-.3,0-.7,0-1.1.1h-.8l-2.6,2.7c0-.3,0-.4-.1-.5,0,0,0,0,.1,0l.2-.2.6-.9c.3-.4.6-.7,1-1,1.1-.8,2.9-.8,3.9.3,0,0,0,.2,0,.3h0Z"/>
  <path class="st8" d="M86.7,104.8h0c0,.3-.2.5-.3.7-1,.9-1.8,1.9-1.1,3.5-.5-.2-.6-.6-.7-1.2-.2-1.5.5-2.5,1.7-3.2l.3.3h0Z"/>
  <path class="st14" d="M124.8,103.5c-.1.3-.2.6-.4.9,0,0-.2,0-.3,0,0-.2-.9-1.3-1.1-1.2,0,0-.2.1-.2.2h-.4c0-.6.1-1.2.2-1.8.1,0,.3,0,.4.1.4.8,1.1,1.3,1.8,1.8h0Z"/>
  <path class="st10" d="M93.9,93.1c-.4.3-.8.7-1.2,1.1-.4.4-.8.8-1.2,1.3-.5.6-1,1.2-1.8,1.4,0,0,0-.2,0-.2,1.3-1.2,2.6-2.4,3.8-3.6h.3c0,.1,0,.1,0,.1Z"/>
  <path class="st12" d="M120.5,99.2l-1-.9h.1c0-.1,0-.2,0-.2h-.1c-.7-.4-1.5-.8-1.5-1.8.5.5.9,1,1.4,1.5.4.4.9.7,1.4,1,.2.2.5.5.7.8h-.1c-.1.1-.2,0-.4,0,0,0,0-.1-.1-.2v-.2h-.3c0-.1,0,0,0,0Z"/>
  <path class="st12" d="M93.9,93.1h-.3c.3-.3.7-.6,1-.9.3-.3.5-.6.7-1,.3,0,.6-.2.7-.6h0c0,0,.3,0,.3,0,0,.3-.2.5-.2.7-.5.6-.9,1.4-1.9,1.5-.1,0-.2.2-.4.2Z"/>
  <path class="st6" d="M109.5,87.7c0,.2,0,.3,0,.5.3.3.7.7,1,1,.2.2.3.3.5.5h-.1c-.2,0-.3-.1-.5-.3-.5-.5-1-1-1.5-1.5-.4-.4-.8-.8-.9-1.4.4.3.7.6,1.1.9,0,0,0,0,0,.1h0c0,0,.4.2.4.2h0Z"/>
  <path class="st10" d="M96.1,91.3c0-.2.1-.4.2-.7h-.3c.4-.4.8-.7,1.1-1.1,0,.6.4,0,.6.2l-1.6,1.6Z"/>
  <path class="st13" d="M97.8,89.6c-.2-.2-.5.4-.6-.2l1.5-1.6-.3.7h.5c0,0-1.1,1-1.1,1h0Z"/>
  <path class="st7" d="M98.8,88.6h-.5c0,0,.3-.7.3-.7l1.1-.9v.2c0,0,.2.3.2.3l-.4.4-.4.4c0,0,0,0,0,0,0,0-.1.1-.2.2,0,0,0,0,0,0Z"/>
  <path class="st12" d="M115,93.3c-.5-.4-.9-.7-1.3-1.1-.3-.3-.5-.6-.7-1,.7.7,1.4,1.4,2,2.2h0Z"/>
  <path class="st3" d="M94.1,117.5h-.5c0,0-.1-.2-.2-.2-.5-.1-.9-.6-.7-1.1h0c0,0,1.4,1.3,1.4,1.3h0Z"/>
  <path class="st3" d="M124.2,110.9l.3.3c-.2.3-.4.6-.6.9,0,0-.3,0-.5,0v-.2c0,0,.9-1,.9-1Z"/>
  <path class="st1" d="M93.2,91.6l-.3-.3c0-.2.2-.3.2-.5.2-.3.3-.3.8,0,0,0-.7.8-.7.8Z"/>
  <path class="st12" d="M116.5,94.9c-.4-.5-.9-.9-1.3-1.4.7.1.9.9,1.3,1.4Z"/>
  <path class="st3" d="M127.3,112.5l-1.5,1.1,1.1-1.1h.5Z"/>
  <path class="st13" d="M100.8,86.1s0,0-.1,0c-.1,0-.3.1-.4.2.4-.4.8-.9,1.3-1.3-.2.3-.4.6-.6.9,0,0-.1.1-.2.2h0Z"/>
  <path class="st3" d="M95,116.4c.3.3.6.6.9.9-.5,0-.9-.4-.9-.9Z"/>
  <path class="st3" d="M93.7,115.4c.6-.3.6.2.8.5-.3-.2-.5-.3-.8-.5Z"/>
  <path class="st12" d="M118,96.3h-.6c0,0,.1-.7.1-.7l.5.6h0Z"/>
  <path class="st12" d="M122.3,101l-.8-.8c.3.2.6.5.9.7h0c0,0,0,0,0,0h0Z"/>
  <path class="st12" d="M117.2,95.4l-.6-.5.6.5Z"/>
  <path class="st1" d="M91.5,93.4c0-.2.1-.5.2-.7,0,.3.2.6-.2.7Z"/>
  <path class="st10" d="M96,90.6c0,.3-.2.6-.6.6h0l.7-.6Z"/>
  <path class="st7" d="M100,86.7l.5.2c0,0-.1.2-.2.3h-.3c0-.1-.2-.1-.2-.1,0,0,.2-.3.2-.3Z"/>
  <path class="st2" d="M86.7,104.8l-.3-.3v-.2l.3.5h0Z"/>
  <path class="st3" d="M127.2,112.1v.3h-.3l.3-.3Z"/>
  <path class="st8" d="M127,112.4h.3v.2h0c-.2,0-.3,0-.5,0h.1Z"/>
  <path class="st2" d="M92.2,113.8h-.2c0,0,.2-.1.2-.1h0c0,.1,0,.1,0,.1Z"/>
  <path class="st12" d="M121.3,100.1h0Z"/>
  <path class="st8" d="M0,88.4h-.5.5Z"/>
  <path class="st7" d="M99.8,87h.2c0,0,0,.1-.1.1v-.2c0,0,0,0,0,0Z"/>
  <path class="st10" d="M102.9,120.9c-.4-.2-.7-.5-1.1-.8-1.4-1.3-2.7-2.7-4-4,0-.1-.2-.2-.2-.3.3,0,.6,0,.8.2.9.9,1.8,1.7,2.7,2.6.1.1.1.3.2.5h.2c0,.2.1.2.2.3l1.4,1.3v.3h0Z"/>
  <path class="st10" d="M93,110.9c-.2,0-.3-.1-.5-.2-1.1-1-2.1-2.1-3.1-3.1,0-.1-.1-.2-.2-.3.3.2.6.4.9.7.9.8,1.7,1.6,2.5,2.4.1.2.3.4.3.6h0Z"/>
  <path class="st10" d="M96.8,115c-.7-.7-1.5-1.4-2.2-2.1-.1-.1,0-.3,0-.5.7.6,1.4,1.2,2,1.8.2.2.2.6.3.9Z"/>
  <path class="st3" d="M122.4,103.4h.4c-.3.7-.1,1.3.6,1.6l-.3.2c-.6-.1-1.1-.6-1.2-1.2l.5-.6Z"/>
  <path class="st1" d="M108.1,118.1h.6c-.7.5-.9,1.4-1.8,1.4.4-.5.8-1,1.3-1.4Z"/>
  <path class="st1" d="M102.9,120.9v-.3l1.6.3c.2,0,.5,0,.7,0h.1c-.9.5-1.7.3-2.4,0h0Z"/>
  <path class="st10" d="M94.5,112.3c-.8.1-1-.5-1.3-1l1.3,1Z"/>
  <path class="st1" d="M106.4,120c0,.7-.6.9-1.1,1.1,0,0,0,0-.1-.1,0,0,0-.2,0-.2l1.1-.7h0Z"/>
  <path class="st10" d="M105.3,120.7c0,0,0,.2,0,.2-.2,0-.5,0-.7,0l.8-.2h0Z"/>
  <path class="st13" d="M99.8,87.2c0,0,0-.1.1-.1,0,0,.2,0,.3.1,0,0-.2.2-.3.3,0,0,0-.2-.1-.3h0Z"/>
  <path class="st13" d="M99.2,88.3l.4-.4-.4.4Z"/>
  <path class="st6" d="M105.3,83.9v.2c-.1,0-.2,0-.2,0h.2Z"/>
  <path class="st2" d="M101.6,119.3h-.2c0,0,.1,0,.2,0Z"/>
  <path class="st2" d="M101.4,119.2h-.2c0-.1.2,0,.2,0Z"/>
  <path class="st13" d="M98.9,88.5c0,0,.1-.1.2-.2,0,0-.1.1-.2.2Z"/>
  <path class="st5" d="M94.2,113.9c.2.3.3.8.6,1,.7.3,1.2.9,1.8,1.4,1,.9,2,1.8,2.9,2.7,1.3,1.2,2.6,2.5,3.9,3.7.4.3,1.3.2,1.8,0,.9-.5,1.4-1.4,2.1-2.1,1.2-1.1,2.4-2.4,3.6-3.5,1-.9,2-1.7,3.1-2.6.2-.1.3-.2.5-.2,0,.1-.1.2-.2.3-1.3,1.4-2.6,2.8-4,4.1-.7.7-1.5,1.4-2.3,2.2-.5.5-1,1-1.5,1.5-1.1,1.4-2.7,1.7-4.1.4-1.4-1.3-2.8-2.7-4.2-4s-2.8-2.7-4.2-4c-.2-.3-.5-.6-.6-1h.8Z"/>
  <path class="st7" d="M94.2,113.9h-.7c-.6-.6-1.5-1-1.5-2.1h0l2.3,2.1h0Z"/>
  <path class="st7" d="M92,111.8v-.2c-.1,0,0,0,0,0,0,0,0,.1,0,.2h0Z"/>
  <path class="st3" d="M127.3,112.5v-.2c0,0,0,0,0,0v.2Z"/>
  <path class="st11" d="M100.8,86.1c0,0,.1-.1.2-.2,0,0-.1.1-.2.2Z"/>
  <path class="st11" d="M109.2,87.4h0s0,0,0,0c0,0,0,0,0,0Z"/>
</svg>